<?xml version="1.0" encoding="UTF-8" standalone="no"?>
<!-- Created with Inkscape (http://www.inkscape.org/) -->

<svg
   xmlns:dc="http://purl.org/dc/elements/1.1/"
   xmlns:cc="http://creativecommons.org/ns#"
   xmlns:rdf="http://www.w3.org/1999/02/22-rdf-syntax-ns#"
   xmlns:svg="http://www.w3.org/2000/svg"
   xmlns="http://www.w3.org/2000/svg"
   xmlns:xlink="http://www.w3.org/1999/xlink"
   version="1.0"
   width="3448.5591"
   height="4708.8398"
   id="svg3123">
  <defs
     id="defs3125" />
  <metadata
     id="metadata3128">
    <rdf:RDF>
      <cc:Work
         rdf:about="">
        <dc:format>image/svg+xml</dc:format>
        <dc:type
           rdf:resource="http://purl.org/dc/dcmitype/StillImage" />
        <dc:title></dc:title>
        <dc:date>27/28.06.2006</dc:date>
        <dc:creator>
          <cc:Agent>
            <dc:title>Sven K</dc:title>
          </cc:Agent>
        </dc:creator>
        <dc:description>Wikipedia Commons Work from User Sven (K)</dc:description>
        <cc:license
           rdf:resource="http://creativecommons.org/licenses/GPL/2.0/" />
      </cc:Work>
      <cc:License
         rdf:about="http://creativecommons.org/licenses/GPL/2.0/">
        <cc:permits
           rdf:resource="http://web.resource.org/cc/Reproduction" />
        <cc:permits
           rdf:resource="http://web.resource.org/cc/Distribution" />
        <cc:requires
           rdf:resource="http://web.resource.org/cc/Notice" />
        <cc:permits
           rdf:resource="http://web.resource.org/cc/DerivativeWorks" />
        <cc:requires
           rdf:resource="http://web.resource.org/cc/ShareAlike" />
        <cc:requires
           rdf:resource="http://web.resource.org/cc/SourceCode" />
      </cc:License>
    </rdf:RDF>
  </metadata>
  <g
     id="layer4"
     style="display:inline">
    <rect
       width="761"
       height="986.00006"
       x="1107.5428"
       y="391.2338"
       id="rect4366"
       style="fill:none;stroke:#e80000;stroke-width:4;stroke-linecap:round;stroke-linejoin:miter;stroke-miterlimit:0;stroke-opacity:1;stroke-dasharray:none;stroke-dashoffset:1.1248" />
    <use
       transform="matrix(0.99929583,0,0,1.2733713,761.70956,-106.69601)"
       id="use4448"
       style="stroke-width:3.52142549;stroke-miterlimit:0;stroke-dasharray:none"
       x="0"
       y="0"
       width="3448.5591"
       height="4708.8398"
       xlink:href="#rect4366" />
    <g
       transform="translate(0,-430.09291)"
       id="g4651">
      <g
         transform="matrix(1.0301645,0,0,1.000666,-64.950271,4608.1664)"
         id="g4462"
         style="fill:#ff0000;fill-opacity:1">
        <path
           d="m 329.15625,69.375 -15.375,4.625 15.375,4.65625 0,-3.1875 35.5,0 0,-2.9375 -35.5,0 0,-3.15625 z m 177.0625,0 0,3.15625 -35.46875,0 0,2.9375 35.46875,0 0,3.1875 15.375,-4.65625 -15.375,-4.625 z"
           transform="matrix(3.538279,0,0,3.538282,29.75538,-3137.245)"
           id="path4464"
           style="color:#000000;fill:#ff0000;fill-opacity:1;fill-rule:evenodd;stroke:none;stroke-width:1;marker:none;visibility:visible;display:inline;overflow:visible" />
        <text
           x="380.14075"
           y="80.581291"
           transform="matrix(3.538279,0,0,3.538282,162.9957,-3137.248)"
           id="text4466"
           xml:space="preserve"
           style="font-size:20.04206085px;font-style:normal;font-variant:normal;font-weight:normal;font-stretch:normal;text-align:center;line-height:125%;writing-mode:lr-tb;text-anchor:middle;fill:#ff0000;fill-opacity:1;stroke:none;font-family:Monospace;-inkscape-font-specification:Monospace"><tspan
             x="380.14075"
             y="80.581291"
             id="tspan4468">215,9 mm</tspan></text>
      </g>
    </g>
    <text
       x="1513.7184"
       y="1219.8269"
       id="text4966"
       xml:space="preserve"
       style="font-size:150px;font-style:normal;font-variant:normal;font-weight:normal;font-stretch:normal;text-align:center;line-height:125%;writing-mode:lr-tb;text-anchor:middle;fill:#ff0000;fill-opacity:1;stroke:none;font-family:Monospace;-inkscape-font-specification:Monospace"><tspan
         x="1513.7184"
         y="1219.8269"
         id="tspan4968"
         style="font-size:150px;font-style:normal;font-variant:normal;font-weight:normal;font-stretch:normal;text-align:center;line-height:125%;writing-mode:lr-tb;text-anchor:middle;font-family:Monospace;-inkscape-font-specification:Monospace">Letter</tspan></text>
    <text
       x="2242.8757"
       y="1224.2566"
       id="text4970"
       xml:space="preserve"
       style="font-size:150px;font-style:normal;font-variant:normal;font-weight:normal;font-stretch:normal;text-align:center;line-height:125%;writing-mode:lr-tb;text-anchor:middle;fill:#ff0000;fill-opacity:1;stroke:none;font-family:Monospace;-inkscape-font-specification:Monospace"><tspan
         x="2242.8757"
         y="1224.2566"
         id="tspan4972">Legal</tspan></text>
    <g
       transform="translate(-105.79572,0)"
       id="g4659">
      <g
         transform="matrix(0,-0.8406071,1,0,4931.6886,3225.0125)"
         id="g4950"
         style="fill:#ff0000;fill-opacity:1">
        <path
           d="m 1933.2622,-2891.7936 -54.4598,16.3822 54.4598,16.4929 0,-11.2904 529.4413,0 0,-10.4049 -529.4413,0 z"
           id="path4695"
           style="color:#000000;fill:#ff0000;fill-opacity:1;fill-rule:evenodd;stroke:none;stroke-width:1;marker:none;visibility:visible;display:inline;overflow:visible" />
        <path
           d="m 3314.4598,-2891.7936 0,11.1798 -450.4137,0 0,10.4049 450.4137,0 0,11.2904 54.4598,-16.4929 z"
           id="path4952"
           style="color:#000000;fill:#ff0000;fill-opacity:1;fill-rule:evenodd;stroke:none;stroke-width:1;marker:none;visibility:visible;display:inline;overflow:visible" />
        <text
           x="2655.3203"
           y="-2852.1013"
           id="text4954"
           xml:space="preserve"
           style="font-size:78.53006744px;font-style:normal;font-variant:normal;font-weight:normal;font-stretch:normal;text-align:center;line-height:125%;writing-mode:lr-tb;text-anchor:middle;fill:#ff0000;fill-opacity:1;stroke:none;font-family:Monospace;-inkscape-font-specification:Monospace"><tspan
             x="2655.3203"
             y="-2852.1013"
             id="tspan4956">355,6 mm</tspan></text>
      </g>
    </g>
    <path
       d="m 1188.7817,393.0741 -16.4825,51.29133 11.2833,0 0,346.60744 10.3983,0 0,-346.60744 11.1727,0 z"
       id="path4675"
       style="color:#000000;fill:#ff0000;fill-opacity:1;fill-rule:evenodd;stroke:none;stroke-width:1;marker:none;visibility:visible;display:inline;overflow:visible" />
    <path
       d="m 1183.5825,1153.8422 0,170.6074 -11.2833,0 16.4825,51.2913 16.3718,-51.2913 -11.1727,0 0,-170.6074 z"
       id="path4960"
       style="color:#000000;fill:#ff0000;fill-opacity:1;fill-rule:evenodd;stroke:none;stroke-width:1;marker:none;visibility:visible;display:inline;overflow:visible" />
    <text
       x="-1005.8306"
       y="1176.5526"
       transform="matrix(0,-0.97078096,1.0300985,0,0,0)"
       id="text4962"
       xml:space="preserve"
       style="font-size:72px;font-style:normal;font-variant:normal;font-weight:normal;font-stretch:normal;text-align:center;line-height:125%;writing-mode:lr-tb;text-anchor:middle;fill:#ff0000;fill-opacity:1;stroke:none;font-family:Monospace;-inkscape-font-specification:Monospace"><tspan
         x="-1005.8306"
         y="1176.5526"
         id="tspan4964">279,4 mm</tspan></text>
    <rect
       width="1526.7087"
       height="984.5827"
       x="362.64038"
       y="1505.9167"
       id="rect4636"
       style="color:#000000;fill:none;stroke:#e80000;stroke-width:4;stroke-linecap:butt;stroke-linejoin:miter;stroke-miterlimit:4;stroke-opacity:1;stroke-dasharray:none;stroke-dashoffset:0;marker:none;visibility:visible;display:inline;overflow:visible" />
    <g
       transform="translate(761.30894,-430.09465)"
       id="g4677">
      <g
         transform="matrix(1.0301645,0,0,1.000666,-64.950271,4608.1664)"
         id="g4683"
         style="fill:#ff0000;fill-opacity:1">
        <path
           d="m 329.15625,69.375 -15.375,4.625 15.375,4.65625 0,-3.1875 35.5,0 0,-2.9375 -35.5,0 0,-3.15625 z m 177.0625,0 0,3.15625 -35.46875,0 0,2.9375 35.46875,0 0,3.1875 15.375,-4.65625 -15.375,-4.625 z"
           transform="matrix(3.538279,0,0,3.538282,29.75538,-3137.245)"
           id="path4685"
           style="color:#000000;fill:#ff0000;fill-opacity:1;fill-rule:evenodd;stroke:none;stroke-width:1;marker:none;visibility:visible;display:inline;overflow:visible" />
        <text
           x="380.14075"
           y="80.581291"
           transform="matrix(3.538279,0,0,3.538282,162.9957,-3137.248)"
           id="text4687"
           xml:space="preserve"
           style="font-size:20.04206085px;font-style:normal;font-variant:normal;font-weight:normal;font-stretch:normal;text-align:center;line-height:125%;writing-mode:lr-tb;text-anchor:middle;fill:#ff0000;fill-opacity:1;stroke:none;font-family:Monospace;-inkscape-font-specification:Monospace"><tspan
             x="380.14075"
             y="80.581291"
             id="tspan4689">215,9 mm</tspan></text>
      </g>
    </g>
    <path
       d="m 411.84099,2432.7022 16.37545,56.042 16.4861,-56.042 -11.28579,0 0,-165.4672 -10.40062,0 0,165.4672 z"
       id="path4716"
       style="color:#000000;fill:#ff0000;fill-opacity:1;fill-rule:evenodd;stroke:none;stroke-width:1;marker:none;visibility:visible;display:inline;overflow:visible" />
    <path
       d="m 411.84099,1563.8408 11.17514,0 0,387.0733 10.40062,0 0,-387.0733 11.28579,0 -16.4861,-56.042 z"
       id="path4701"
       style="color:#000000;fill:#ff0000;fill-opacity:1;fill-rule:evenodd;stroke:none;stroke-width:1;marker:none;visibility:visible;display:inline;overflow:visible" />
    <text
       x="-2079.1812"
       y="458.12195"
       transform="matrix(0,-1.0146319,0.98557906,0,0,0)"
       id="text4703"
       xml:space="preserve"
       style="font-size:72px;font-style:normal;font-variant:normal;font-weight:normal;font-stretch:normal;text-align:center;line-height:125%;writing-mode:lr-tb;text-anchor:middle;fill:#ff0000;fill-opacity:1;stroke:none;font-family:Monospace;-inkscape-font-specification:Monospace"><tspan
         x="-2079.1812"
         y="458.12195"
         id="tspan4705">279 mm</tspan></text>
    <g
       transform="translate(0,12.549996)"
       id="g4743">
      <path
         d="m 409.74213,1690.9558 -45.77929,16.3822 45.77929,16.4929 0,-11.2904 445.05212,0 0,-10.4049 -445.05212,0 z"
         id="path4722"
         style="color:#000000;fill:#ff0000;fill-opacity:1;fill-rule:evenodd;stroke:none;stroke-width:1;marker:none;visibility:visible;display:inline;overflow:visible" />
      <path
         d="m 1841.5748,1690.9558 0,11.1798 -654.445,0 0,10.4049 654.445,0 0,11.2904 45.7793,-16.4929 z"
         id="path4724"
         style="color:#000000;fill:#ff0000;fill-opacity:1;fill-rule:evenodd;stroke:none;stroke-width:1;marker:none;visibility:visible;display:inline;overflow:visible" />
      <text
         x="1108.9202"
         y="1586.7383"
         transform="scale(0.91684628,1.0906954)"
         id="text4726"
         xml:space="preserve"
         style="font-size:72px;font-style:normal;font-variant:normal;font-weight:normal;font-stretch:normal;text-align:center;line-height:125%;writing-mode:lr-tb;text-anchor:middle;fill:#ff0000;fill-opacity:1;stroke:none;font-family:Monospace;-inkscape-font-specification:Monospace"><tspan
           x="1108.9202"
           y="1586.7383"
           id="tspan4728">432 mm</tspan></text>
    </g>
    <text
       x="1121.3639"
       y="1643.2659"
       id="text4739"
       xml:space="preserve"
       style="font-size:150px;font-style:normal;font-variant:normal;font-weight:normal;font-stretch:normal;text-align:center;line-height:125%;writing-mode:lr-tb;text-anchor:middle;fill:#ff0000;fill-opacity:1;stroke:none;font-family:Monospace;-inkscape-font-specification:Monospace"><tspan
         x="1121.3639"
         y="1643.2659"
         id="tspan4741"
         style="font-size:150px;font-style:normal;font-variant:normal;font-weight:normal;font-stretch:normal;text-align:center;line-height:125%;writing-mode:lr-tb;text-anchor:middle;font-family:Monospace;-inkscape-font-specification:Monospace">Ledger/Tabloid</tspan></text>
  </g>
  <g
     transform="translate(-30.415,3187.86)"
     id="layer1"
     style="display:inline">
    <rect
       width="2977.6462"
       height="4209.7793"
       x="286.82715"
       y="-2903.1855"
       transform="translate(106.299,106.2943)"
       id="rect3174"
       style="color:#000000;fill:none;stroke:#000000;stroke-width:3.5406034;stroke-linecap:butt;stroke-linejoin:miter;stroke-miterlimit:4;stroke-opacity:1;stroke-dasharray:none;stroke-dashoffset:0;marker:none;visibility:visible;display:inline;overflow:visible" />
    <rect
       width="2976.3838"
       height="2109.4309"
       x="393.1254"
       y="-697.50299"
       id="rect16580"
       style="color:#000000;fill:#ffffff;fill-opacity:1;fill-rule:evenodd;stroke:#000000;stroke-width:3.5406034;stroke-linecap:butt;stroke-linejoin:miter;stroke-miterlimit:4;stroke-opacity:1;stroke-dasharray:none;stroke-dashoffset:0;marker:none;visibility:visible;display:inline;overflow:visible" />
    <rect
       width="376.08786"
       height="262.332"
       x="287.76941"
       y="-2632.73"
       transform="translate(106.299,106.2943)"
       id="rect4926"
       style="opacity:0.6;color:#000000;fill:#92b7cb;fill-opacity:1;fill-rule:evenodd;stroke:#000000;stroke-width:3.54060268;stroke-linecap:butt;stroke-linejoin:miter;stroke-miterlimit:4;stroke-opacity:1;stroke-dasharray:none;stroke-dashoffset:0;marker:none;visibility:visible;display:inline;overflow:visible" />
    <rect
       width="368.91586"
       height="532.01709"
       x="663.00806"
       y="-2903.2444"
       transform="translate(106.299,106.2943)"
       id="rect4928"
       style="opacity:0.6;color:#000000;fill:#a5c3d4;fill-opacity:1;fill-rule:evenodd;stroke:#000000;stroke-width:3.42888212;stroke-linecap:butt;stroke-linejoin:miter;stroke-miterlimit:4;stroke-opacity:1;stroke-dasharray:none;stroke-dashoffset:0;marker:none;visibility:visible;display:inline;overflow:visible" />
    <rect
       width="740.55035"
       height="1054.323"
       x="1137.7286"
       y="-2796.5632"
       id="rect4930"
       style="opacity:0.6;color:#000000;fill:#c9dbe5;fill-opacity:1;fill-rule:evenodd;stroke:#000000;stroke-width:3.54414392;stroke-linecap:butt;stroke-linejoin:miter;stroke-miterlimit:4;stroke-opacity:1;stroke-dasharray:none;stroke-dashoffset:0;marker:none;visibility:visible;display:inline;overflow:visible" />
    <rect
       width="743.77063"
       height="525.07715"
       ry="0"
       x="286.84082"
       y="-2371.5027"
       transform="translate(106.299,106.2943)"
       id="rect4932"
       style="opacity:0.6;color:#000000;fill:#b7cfdc;fill-opacity:1;fill-rule:evenodd;stroke:#000000;stroke-width:3.54983473;stroke-linecap:butt;stroke-linejoin:miter;stroke-miterlimit:4;stroke-opacity:1;stroke-dasharray:none;stroke-dashoffset:0;marker:none;visibility:visible;display:inline;overflow:visible" />
    <rect
       width="1493.3823"
       height="2099.6404"
       x="1877.4098"
       y="-2796.9243"
       id="rect4934"
       style="opacity:0.6;color:#000000;fill:#e9f1f5;fill-opacity:1;fill-rule:evenodd;stroke:#000000;stroke-width:3.54099989;stroke-linecap:butt;stroke-linejoin:miter;stroke-miterlimit:4;stroke-opacity:1;stroke-dasharray:none;stroke-dashoffset:0;marker:none;visibility:visible;display:inline;overflow:visible" />
    <rect
       width="1484.373"
       height="1044.0038"
       x="286.75638"
       y="-1847.6586"
       transform="translate(106.299,106.2943)"
       id="rect4936"
       style="opacity:0.6;color:#000000;fill:#dbe7ee;fill-opacity:1;fill-rule:evenodd;stroke:#000000;stroke-width:3.42229342;stroke-linecap:butt;stroke-linejoin:miter;stroke-miterlimit:4;stroke-opacity:1;stroke-dasharray:none;stroke-dashoffset:0;marker:none;visibility:visible;display:inline;overflow:visible" />
    <rect
       width="183.75191"
       height="269.41589"
       x="478.42044"
       y="-2902.5217"
       transform="translate(106.299,106.2943)"
       id="rect4924"
       style="opacity:0.6;color:#000000;fill:#7ca8c0;fill-opacity:1;fill-rule:evenodd;stroke:#000000;stroke-width:2.97993159;stroke-linecap:butt;stroke-linejoin:miter;stroke-miterlimit:4;stroke-opacity:1;stroke-dasharray:none;stroke-dashoffset:0;marker:none;visibility:visible;display:inline;overflow:visible" />
    <path
       d="m 286.84512,-2895.4233 0,-290.6666"
       transform="translate(106.299,106.2943)"
       id="path8466"
       style="fill:none;stroke:#000000;stroke-width:3.54060388px;stroke-linecap:butt;stroke-linejoin:miter;stroke-opacity:1" />
    <path
       d="m 3264.6058,-2895.4233 0,-290.6666"
       transform="translate(106.299,106.2943)"
       id="path8468"
       style="fill:none;stroke:#000000;stroke-width:3.54060388px;stroke-linecap:butt;stroke-linejoin:miter;stroke-opacity:1" />
    <path
       d="m 321.73096,-2902.8408 -289.228363,0"
       transform="translate(106.299,106.2943)"
       id="path8470"
       style="fill:none;stroke:#000000;stroke-width:3.54060388px;stroke-linecap:butt;stroke-linejoin:miter;stroke-opacity:1" />
    <path
       d="m 284.44073,-2632.7375 -95.00497,0"
       transform="translate(106.299,106.2943)"
       id="path8472"
       style="fill:none;stroke:#000000;stroke-width:3.54060411px;stroke-linecap:butt;stroke-linejoin:miter;stroke-opacity:1" />
    <path
       d="m 284.44073,-2371.5375 -95.00497,0"
       transform="translate(106.299,106.2943)"
       id="path8474"
       style="fill:none;stroke:#000000;stroke-width:3.54060411px;stroke-linecap:butt;stroke-linejoin:miter;stroke-opacity:1" />
    <path
       d="m 284.44077,-1847.6793 -95.00501,0"
       transform="translate(106.299,106.2943)"
       id="path8476"
       style="fill:none;stroke:#000000;stroke-width:3.54060411px;stroke-linecap:butt;stroke-linejoin:miter;stroke-opacity:1" />
    <path
       d="m 285.64978,-803.83303 -105.04118,0"
       transform="translate(106.299,106.2943)"
       id="path9351"
       style="fill:none;stroke:#000000;stroke-width:3.54060435px;stroke-linecap:butt;stroke-linejoin:miter;stroke-opacity:1" />
    <path
       d="m 285.53595,1306.6236 -253.350644,0"
       transform="translate(106.299,106.2943)"
       id="path11120"
       style="fill:none;stroke:#000000;stroke-width:3.54060435px;stroke-linecap:butt;stroke-linejoin:miter;stroke-opacity:1" />
    <path
       d="m 478.41697,-2895.4231 0,-122.1424"
       transform="translate(106.299,106.2943)"
       id="path11126"
       style="fill:none;stroke:#000000;stroke-width:3.54060555px;stroke-linecap:butt;stroke-linejoin:miter;stroke-opacity:1" />
    <path
       d="m 662.60921,-2895.4231 0,-122.1424"
       transform="translate(106.299,106.2943)"
       id="path11128"
       style="fill:none;stroke:#000000;stroke-width:3.54060555px;stroke-linecap:butt;stroke-linejoin:miter;stroke-opacity:1" />
    <path
       d="m 1031.4377,-2895.4231 0,-122.1424"
       transform="translate(106.299,106.2943)"
       id="path11130"
       style="fill:none;stroke:#000000;stroke-width:3.54060555px;stroke-linecap:butt;stroke-linejoin:miter;stroke-opacity:1" />
    <path
       d="m 1770.7537,-2904.1523 0,-112.0069"
       transform="translate(106.299,106.2943)"
       id="path11132"
       style="fill:none;stroke:#000000;stroke-width:3.54060388px;stroke-linecap:butt;stroke-linejoin:miter;stroke-opacity:1" />
    <g
       id="g2132">
      <path
         d="m 118.78125,93.21875 -15.375,4.625 15.375,4.65625 0,-3.1875 336.375,0 0,-2.9375 -336.375,0 0,-3.15625 z m 809.15625,0 0,3.15625 -336.375,0 0,2.9375 336.375,0 0,3.1875 15.375,-4.65625 -15.375,-4.625 z"
         transform="matrix(3.540602,0,0,3.540605,29.02656,-3391.734)"
         id="rect11134"
         style="color:#000000;fill:#000000;fill-opacity:1;fill-rule:evenodd;stroke:none;stroke-width:1;marker:none;visibility:visible;display:inline;overflow:visible" />
      <text
         x="485.84698"
         y="105.84901"
         transform="matrix(3.540602,0,0,3.540605,162.4042,-3396.779)"
         id="text14646"
         xml:space="preserve"
         style="font-size:20.33551598px;font-style:normal;font-variant:normal;font-weight:normal;font-stretch:normal;text-align:center;line-height:125%;writing-mode:lr-tb;text-anchor:middle;fill:#000000;fill-opacity:1;stroke:none;font-family:Monospace;-inkscape-font-specification:Monospace"><tspan
           x="485.84698"
           y="105.84901"
           id="tspan14648">841 mm</tspan></text>
    </g>
    <g
       id="g2148">
      <path
         d="M 538,69.375 522.625,74 538,78.65625 l 0,-3.1875 141.90625,0 0,-2.9375 -141.90625,0 0,-3.15625 z m 389.9375,0 0,3.15625 -141.9375,0 0,2.9375 141.9375,0 0,3.1875 L 943.3125,74 927.9375,69.375 z"
         transform="matrix(3.5421,0,0,3.542103,27.6124,-3137.527)"
         id="path13763"
         style="color:#000000;fill:#000000;fill-opacity:1;fill-rule:evenodd;stroke:none;stroke-width:1;marker:none;visibility:visible;display:inline;overflow:visible" />
      <text
         x="695.62537"
         y="80.134727"
         transform="matrix(3.5421,0,0,3.542103,161.0561,-3135.948)"
         id="text14652"
         xml:space="preserve"
         style="font-size:20.32691574px;font-style:normal;font-variant:normal;font-weight:normal;font-stretch:normal;text-align:center;line-height:125%;writing-mode:lr-tb;text-anchor:middle;fill:#000000;fill-opacity:1;stroke:none;font-family:Monospace;-inkscape-font-specification:Monospace"><tspan
           x="695.62537"
           y="80.134727"
           id="tspan14654">420 mm</tspan></text>
    </g>
    <g
       id="g2140">
      <path
         d="m 329.15625,69.375 -15.375,4.625 15.375,4.65625 0,-3.1875 35.5,0 0,-2.9375 -35.5,0 0,-3.15625 z m 177.0625,0 0,3.15625 -35.46875,0 0,2.9375 35.46875,0 0,3.1875 15.375,-4.65625 -15.375,-4.625 z"
         transform="matrix(3.538279,0,0,3.538282,29.75538,-3137.245)"
         id="path13765"
         style="color:#000000;fill:#000000;fill-opacity:1;fill-rule:evenodd;stroke:none;stroke-width:1;marker:none;visibility:visible;display:inline;overflow:visible" />
      <text
         x="380.14075"
         y="80.581291"
         transform="matrix(3.538279,0,0,3.538282,162.9957,-3137.248)"
         id="text14658"
         xml:space="preserve"
         style="font-size:20.34886742px;font-style:normal;font-variant:normal;font-weight:normal;font-stretch:normal;text-align:center;line-height:125%;writing-mode:lr-tb;text-anchor:middle;fill:#000000;fill-opacity:1;stroke:none;font-family:Monospace;-inkscape-font-specification:Monospace"><tspan
           x="380.14075"
           y="80.581291"
           id="tspan14660">210 mm</tspan></text>
    </g>
    <g
       id="g2156">
      <path
         d="m 224.99531,69.375824 -15.375,4.625 15.375,4.65625 0,-3.1875 72.25056,0 0,3.1875 15.375,-4.65625 -15.375,-4.625 0,3.15625 -72.25056,0 0,-3.15625 z"
         transform="matrix(3.540602,0,0,3.540605,29.02656,-3137.417)"
         id="path13769"
         style="color:#000000;fill:#000000;fill-opacity:1;fill-rule:evenodd;stroke:none;stroke-width:1;marker:none;visibility:visible;display:inline;overflow:visible" />
      <text
         x="223.22856"
         y="57.870762"
         transform="matrix(3.540602,0,0,3.540605,162.4077,-3137.417)"
         id="text14662"
         xml:space="preserve"
         style="font-size:20.33551598px;font-style:normal;font-variant:normal;font-weight:normal;font-stretch:normal;text-align:center;line-height:125%;writing-mode:lr-tb;text-anchor:middle;fill:#000000;fill-opacity:1;stroke:none;font-family:Monospace;-inkscape-font-specification:Monospace"><tspan
           x="223.22856"
           y="57.870762"
           id="tspan14664">105 mm</tspan></text>
    </g>
    <g
       id="g2164">
      <path
         d="m 172.99531,69.375824 -15.375,4.625 15.375,4.65625 0,-3.1875 20.98532,0 0,3.1875 15.375,-4.65625 -15.375,-4.625 0,3.15625 -20.98532,0 0,-3.15625 z"
         transform="matrix(3.540602,0,0,3.540605,29.02656,-3137.417)"
         id="path13767"
         style="color:#000000;fill:#000000;fill-opacity:1;fill-rule:evenodd;stroke:none;stroke-width:1;marker:none;visibility:visible;display:inline;overflow:visible" />
      <text
         x="151.63243"
         y="57.870762"
         transform="matrix(3.540602,0,0,3.540605,142.0794,-3137.417)"
         id="text14666"
         xml:space="preserve"
         style="font-size:20.33551598px;font-style:normal;font-variant:normal;font-weight:normal;font-stretch:normal;text-align:center;line-height:125%;writing-mode:lr-tb;text-anchor:middle;fill:#000000;fill-opacity:1;stroke:none;font-family:Monospace;-inkscape-font-specification:Monospace"><tspan
           x="151.63243"
           y="57.870762"
           id="tspan14668">52 mm</tspan></text>
    </g>
    <g
       id="g2196">
      <path
         d="m 86.21875,120.5 -4.65625,15.375 3.1875,0 0,510.5 2.9375,0 0,-510.5 3.15625,0 -4.625,-15.375 z M 84.75,782.78125 l 0,510.50005 -3.1875,0 4.65625,15.375 4.625,-15.375 -3.15625,0 0,-510.50005 -2.9375,0 z"
         transform="matrix(3.540602,0,0,3.540605,-126.7599,-3221.785)"
         id="path14670"
         style="color:#000000;fill:#000000;fill-opacity:1;fill-rule:evenodd;stroke:none;stroke-width:1;marker:none;visibility:visible;display:inline;overflow:visible" />
      <text
         x="-758.21881"
         y="92.782318"
         transform="matrix(0,-3.540605,3.540602,0,-126.8107,-3375.52)"
         id="text14684"
         xml:space="preserve"
         style="font-size:20.33551598px;font-style:normal;font-variant:normal;font-weight:normal;font-stretch:normal;text-align:center;line-height:125%;writing-mode:lr-tb;text-anchor:middle;fill:#000000;fill-opacity:1;stroke:none;font-family:Monospace;-inkscape-font-specification:Monospace"><tspan
           x="-758.21881"
           y="92.782318"
           id="tspan14686">1189 mm</tspan></text>
    </g>
    <g
       id="g2204">
      <path
         d="m 56.21875,712.875 -4.65625,15.375 3.1875,0 0,224.96875 2.9375,0 0,-224.96875 3.15625,0 -4.625,-15.375 z m -1.46875,355.3125 0,224.9688 -3.1875,0 4.65625,15.375 4.625,-15.375 -3.15625,0 0,-224.9688 -2.9375,0 z"
         transform="matrix(3.540602,0,0,3.540605,135.2446,-3221.785)"
         id="path14678"
         style="color:#000000;fill:#000000;fill-opacity:1;fill-rule:evenodd;stroke:none;stroke-width:1;marker:none;visibility:visible;display:inline;overflow:visible" />
      <text
         x="-1048.2894"
         y="62.782314"
         transform="matrix(0,-3.540605,3.540602,0,135.1938,-3355.128)"
         id="text14690"
         xml:space="preserve"
         style="font-size:20.33551598px;font-style:normal;font-variant:normal;font-weight:normal;font-stretch:normal;text-align:center;line-height:125%;writing-mode:lr-tb;text-anchor:middle;fill:#000000;fill-opacity:1;stroke:none;font-family:Monospace;-inkscape-font-specification:Monospace"><tspan
           x="-1048.2894"
           y="62.782314"
           id="tspan14692">594 mm</tspan></text>
    </g>
    <g
       id="g2188">
      <path
         d="m 56.21875,418.375 -4.65625,15.375 3.1875,0 0,78.71875 2.9375,0 0,-78.71875 3.15625,0 -4.625,-15.375 z M 54.75,618.84375 l 0,78.71875 -3.1875,0 4.65625,15.375 4.625,-15.375 -3.15625,0 0,-78.71875 -2.9375,0 z"
         transform="matrix(3.540602,0,0,3.540605,135.2446,-3221.785)"
         id="path14672"
         style="color:#000000;fill:#000000;fill-opacity:1;fill-rule:evenodd;stroke:none;stroke-width:1;marker:none;visibility:visible;display:inline;overflow:visible" />
      <text
         x="-603.21851"
         y="62.782314"
         transform="matrix(0,-3.540605,3.540602,0,135.1938,-3355.168)"
         id="text14696"
         xml:space="preserve"
         style="font-size:20.33551598px;font-style:normal;font-variant:normal;font-weight:normal;font-stretch:normal;text-align:center;line-height:125%;writing-mode:lr-tb;text-anchor:middle;fill:#000000;fill-opacity:1;stroke:none;font-family:Monospace;-inkscape-font-specification:Monospace"><tspan
           x="-603.21851"
           y="62.782314"
           id="tspan14698">297 mm</tspan></text>
    </g>
    <g
       id="g2180">
      <path
         d="m 56.21875,270.875 -4.65625,15.375 3.1875,0 0,8.875 2.9375,0 0,-8.875 3.15625,0 -4.625,-15.375 z M 54.75,393.6875 l 0,8.875 -3.1875,0 4.65625,15.375 4.625,-15.375 -3.15625,0 0,-8.875 -2.9375,0 z"
         transform="matrix(3.540602,0,0,3.540605,135.2446,-3221.785)"
         id="path14674"
         style="color:#000000;fill:#000000;fill-opacity:1;fill-rule:evenodd;stroke:none;stroke-width:1;marker:none;visibility:visible;display:inline;overflow:visible" />
      <text
         x="-382.29871"
         y="62.782314"
         transform="matrix(0,-3.540605,3.540602,0,135.1938,-3355.168)"
         id="text14702"
         xml:space="preserve"
         style="font-size:20.33551598px;font-style:normal;font-variant:normal;font-weight:normal;font-stretch:normal;text-align:center;line-height:125%;writing-mode:lr-tb;text-anchor:middle;fill:#000000;fill-opacity:1;stroke:none;font-family:Monospace;-inkscape-font-specification:Monospace"><tspan
           x="-382.29871"
           y="62.782314"
           id="tspan14704">148 mm</tspan></text>
    </g>
    <g
       id="g2172">
      <path
         d="m 60.858103,212.31552 -4.625,-15.375 -4.65625,15.375 3.1875,0 0,42.39666 -3.1875,0 4.65625,15.375 4.625,-15.375 -3.15625,0 0,-42.39666 3.15625,0 z"
         transform="matrix(3.540602,0,0,3.540605,135.2446,-3221.785)"
         id="path14676"
         style="color:#000000;fill:#000000;fill-opacity:1;fill-rule:evenodd;stroke:none;stroke-width:1;marker:none;visibility:visible;display:inline;overflow:visible" />
      <text
         x="-265.41342"
         y="42.518345"
         transform="matrix(0,-3.540605,3.540602,0,135.2446,-3334.838)"
         id="text14706"
         xml:space="preserve"
         style="font-size:20.33551598px;font-style:normal;font-variant:normal;font-weight:normal;font-stretch:normal;text-align:center;line-height:125%;writing-mode:lr-tb;text-anchor:middle;fill:#000000;fill-opacity:1;stroke:none;font-family:Monospace;-inkscape-font-specification:Monospace"><tspan
           x="-265.41342"
           y="42.518345"
           id="tspan14708">74 mm</tspan></text>
    </g>
    <text
       x="502.17737"
       y="-2728.4307"
       transform="translate(177.7197,106.2931)"
       id="text14718"
       xml:space="preserve"
       style="font-size:72px;font-style:normal;font-variant:normal;font-weight:normal;font-stretch:normal;text-align:center;line-height:125%;writing-mode:lr-tb;text-anchor:middle;fill:#000000;fill-opacity:1;stroke:none;font-family:Monospace;-inkscape-font-specification:Monospace"><tspan
         x="502.17737"
         y="-2728.4307"
         id="tspan14720"
         style="font-size:100px">A8</tspan></text>
    <text
       x="737.59808"
       y="-2573.9863"
       transform="translate(221.0028,106.2933)"
       id="text14722"
       xml:space="preserve"
       style="font-size:72px;font-style:normal;font-variant:normal;font-weight:normal;font-stretch:normal;text-align:center;line-height:125%;writing-mode:lr-tb;text-anchor:middle;fill:#000000;fill-opacity:1;stroke:none;font-family:Monospace;-inkscape-font-specification:Monospace"><tspan
         x="737.59808"
         y="-2573.9863"
         id="tspan14724"
         style="font-size:100px">A6</tspan></text>
    <text
       x="389.16428"
       y="-2450.7112"
       transform="translate(198.3977,106.2934)"
       id="text14726"
       xml:space="preserve"
       style="font-size:72px;font-style:normal;font-variant:normal;font-weight:normal;font-stretch:normal;text-align:center;line-height:125%;writing-mode:lr-tb;text-anchor:middle;fill:#000000;fill-opacity:1;stroke:none;font-family:Monospace;-inkscape-font-specification:Monospace"><tspan
         x="389.16428"
         y="-2450.7112"
         id="tspan14728"
         style="font-size:100px">A7</tspan></text>
    <text
       x="512.83636"
       y="-2024.8755"
       transform="translate(261.6084,106.2934)"
       id="text14730"
       xml:space="preserve"
       style="font-size:200px;font-style:normal;font-variant:normal;font-weight:normal;font-stretch:normal;text-align:center;line-height:125%;writing-mode:lr-tb;text-anchor:middle;fill:#000000;fill-opacity:1;stroke:none;font-family:Monospace;-inkscape-font-specification:Monospace"><tspan
         x="512.83636"
         y="-2024.8755"
         id="tspan14732">A5</tspan></text>
    <text
       x="1514.7006"
       y="-2219.4592"
       id="text14734"
       xml:space="preserve"
       style="font-size:200px;font-style:normal;font-variant:normal;font-weight:normal;font-stretch:normal;text-align:center;line-height:125%;writing-mode:lr-tb;text-anchor:middle;fill:#000000;fill-opacity:1;stroke:none;font-family:Monospace;-inkscape-font-specification:Monospace"><tspan
         x="1514.7006"
         y="-2219.4592"
         id="tspan14736">A4</tspan></text>
    <text
       x="1034.7408"
       y="-1030.793"
       id="text14738"
       xml:space="preserve"
       style="font-size:200px;font-style:normal;font-variant:normal;font-weight:normal;font-stretch:normal;text-align:center;line-height:125%;writing-mode:lr-tb;text-anchor:middle;fill:#000000;fill-opacity:1;stroke:none;font-family:Monospace;-inkscape-font-specification:Monospace"><tspan
         x="1034.7408"
         y="-1030.793"
         id="tspan14740">A3</tspan></text>
    <text
       x="2939.6221"
       y="-1025.4495"
       id="text14742"
       xml:space="preserve"
       style="font-size:200px;font-style:normal;font-variant:normal;font-weight:normal;font-stretch:normal;text-align:center;line-height:125%;writing-mode:lr-tb;text-anchor:middle;fill:#000000;fill-opacity:1;stroke:none;font-family:Monospace;-inkscape-font-specification:Monospace"><tspan
         x="2939.6221"
         y="-1025.4495"
         id="tspan14744"
         style="font-size:200px;font-style:normal;font-variant:normal;font-weight:normal;font-stretch:normal;text-align:center;line-height:125%;writing-mode:lr-tb;text-anchor:middle;font-family:Monospace;-inkscape-font-specification:Monospace">A2</tspan></text>
    <text
       x="1386.4808"
       y="480.03986"
       transform="translate(521.6015,106.8292)"
       id="text14746"
       xml:space="preserve"
       style="font-size:200px;font-style:normal;font-variant:normal;font-weight:normal;font-stretch:normal;text-align:center;line-height:125%;writing-mode:lr-tb;text-anchor:middle;fill:#000000;fill-opacity:1;stroke:none;font-family:Monospace;-inkscape-font-specification:Monospace"><tspan
         x="1386.4808"
         y="480.03986"
         id="tspan14748">A1</tspan></text>
    <text
       x="1894.1101"
       y="-481.52911"
       id="text14750"
       xml:space="preserve"
       style="font-size:72px;font-style:normal;font-variant:normal;font-weight:normal;font-stretch:normal;text-align:center;line-height:125%;writing-mode:lr-tb;text-anchor:middle;fill:#ffffff;fill-opacity:0.82033895;stroke:#000000;stroke-width:3.54060388px;stroke-linecap:butt;stroke-linejoin:miter;stroke-opacity:1;font-family:Monospace;-inkscape-font-specification:Monospace"><tspan
         x="1894.1101"
         y="-481.52911"
         id="tspan14752"
         style="font-size:600px;font-style:normal;font-variant:normal;font-weight:normal;font-stretch:normal;text-align:center;line-height:125%;writing-mode:lr-tb;text-anchor:middle;stroke-width:3.54060388;font-family:Monospace;-inkscape-font-specification:Monospace">A0</tspan></text>
    <rect
       width="188.17767"
       height="266.88687"
       x="288.56915"
       y="-2901.4041"
       transform="translate(106.299,106.2943)"
       id="rect16500"
       style="color:#000000;fill:#818181;fill-opacity:1;fill-rule:evenodd;stroke:none;stroke-width:0.84164512;marker:none;visibility:visible;display:inline;overflow:visible" />
  </g>
</svg>
