<?xml version="1.0" encoding="UTF-8" standalone="no"?>
<!-- Created with Inkscape (http://www.inkscape.org/) -->
<svg
   xmlns:dc="http://purl.org/dc/elements/1.1/"
   xmlns:cc="http://web.resource.org/cc/"
   xmlns:rdf="http://www.w3.org/1999/02/22-rdf-syntax-ns#"
   xmlns:svg="http://www.w3.org/2000/svg"
   xmlns="http://www.w3.org/2000/svg"
   xmlns:sodipodi="http://sodipodi.sourceforge.net/DTD/sodipodi-0.dtd"
   xmlns:inkscape="http://www.inkscape.org/namespaces/inkscape"
   width="4101.147"
   height="5599.9199"
   id="svg2535"
   sodipodi:version="0.32"
   inkscape:version="0.44"
   version="1.0"
   sodipodi:docbase="C:\Documents and Settings\Jonas\Skrivbord"
   sodipodi:docname="B_size_illustration2.svg">
  <defs
     id="defs2537" />
  <sodipodi:namedview
     id="base"
     pagecolor="#ffffff"
     bordercolor="#666666"
     borderopacity="1.0"
     gridtolerance="10000"
     guidetolerance="10"
     objecttolerance="10"
     inkscape:pageopacity="0.0"
     inkscape:pageshadow="2"
     inkscape:zoom="0.13464478"
     inkscape:cx="2344.0921"
     inkscape:cy="1942.9287"
     inkscape:document-units="px"
     inkscape:current-layer="layer1"
     width="4101.147px"
     height="5599.9199px"
     inkscape:window-width="909"
     inkscape:window-height="902"
     inkscape:window-x="364"
     inkscape:window-y="-10" />
  <metadata
     id="metadata2540">
    <rdf:RDF>
      <cc:Work
         rdf:about="">
        <dc:format>image/svg+xml</dc:format>
        <dc:type
           rdf:resource="http://purl.org/dc/dcmitype/StillImage" />
      </cc:Work>
    </rdf:RDF>
  </metadata>
  <g
     inkscape:label="Layer 1"
     inkscape:groupmode="layer"
     id="layer1">
    <rect
       transform="matrix(1.18923,0,0,1.18923,90.252,3917.518)"
       y="-2903.1855"
       x="286.82715"
       height="4209.7793"
       width="2977.6462"
       id="rect2293"
       style="color:black;fill:white;fill-opacity:1;fill-rule:evenodd;stroke:black;stroke-width:2.9772234;stroke-linecap:butt;stroke-linejoin:miter;marker:none;marker-start:none;marker-mid:none;marker-end:none;stroke-miterlimit:4;stroke-dasharray:none;stroke-dashoffset:0;stroke-opacity:1;visibility:visible;display:inline;overflow:visible" />
    <rect
       transform="matrix(1.18923,0,0,1.18923,90.252,3917.518)"
       y="-803.7973"
       x="286.82639"
       height="2109.4309"
       width="2976.3838"
       id="rect2295"
       style="color:black;fill:white;fill-opacity:1;fill-rule:evenodd;stroke:black;stroke-width:2.9772234;stroke-linecap:butt;stroke-linejoin:miter;marker:none;marker-start:none;marker-mid:none;marker-end:none;stroke-miterlimit:4;stroke-dasharray:none;stroke-dashoffset:0;stroke-opacity:1;visibility:visible;display:inline;overflow:visible" />
    <rect
       transform="matrix(1.18923,0,0,1.18923,90.252,3917.518)"
       y="-2632.73"
       x="287.76941"
       height="262.332"
       width="376.08786"
       id="rect2297"
       style="color:black;fill:#99cb92;fill-opacity:1;fill-rule:evenodd;stroke:black;stroke-width:2.97722292;stroke-linecap:butt;stroke-linejoin:miter;marker:none;marker-start:none;marker-mid:none;marker-end:none;stroke-miterlimit:4;stroke-dasharray:none;stroke-dashoffset:0;stroke-opacity:1;visibility:visible;display:inline;overflow:visible" />
    <rect
       transform="matrix(1.18923,0,0,1.18923,90.252,3917.518)"
       y="-2903.2444"
       x="663.00806"
       height="532.01709"
       width="368.91586"
       id="rect2299"
       style="color:black;fill:#abd4a5;fill-opacity:1;fill-rule:evenodd;stroke:black;stroke-width:2.88327909;stroke-linecap:butt;stroke-linejoin:miter;marker:none;marker-start:none;marker-mid:none;marker-end:none;stroke-miterlimit:4;stroke-dasharray:none;stroke-dashoffset:0;stroke-opacity:1;visibility:visible;display:inline;overflow:visible" />
    <rect
       transform="matrix(1.18923,0,0,1.18923,90.252,3917.518)"
       y="-2902.8574"
       x="1031.469"
       height="1054.323"
       width="739.0979"
       id="rect2301"
       style="color:black;fill:#cde5c9;fill-opacity:1;fill-rule:evenodd;stroke:black;stroke-width:2.98020077;stroke-linecap:butt;stroke-linejoin:miter;marker:none;marker-start:none;marker-mid:none;marker-end:none;stroke-miterlimit:4;stroke-dasharray:none;stroke-dashoffset:0;stroke-opacity:1;visibility:visible;display:inline;overflow:visible" />
    <rect
       transform="matrix(1.18923,0,0,1.18923,90.252,3917.518)"
       ry="0"
       y="-2371.5027"
       x="286.84082"
       height="525.07715"
       width="743.77063"
       id="rect2303"
       style="color:black;fill:#bcdcb7;fill-opacity:1;fill-rule:evenodd;stroke:black;stroke-width:2.98498583;stroke-linecap:butt;stroke-linejoin:miter;marker:none;marker-start:none;marker-mid:none;marker-end:none;stroke-miterlimit:4;stroke-dasharray:none;stroke-dashoffset:0;stroke-opacity:1;visibility:visible;display:inline;overflow:visible" />
    <rect
       transform="matrix(1.18923,0,0,1.18923,90.252,3917.518)"
       y="-2903.2185"
       x="1771.1108"
       height="2099.6404"
       width="1493.3823"
       id="rect2305"
       style="color:black;fill:#ebf5e9;fill-opacity:1;fill-rule:evenodd;stroke:black;stroke-width:2.9772234;stroke-linecap:butt;stroke-linejoin:miter;marker:none;marker-start:none;marker-mid:none;marker-end:none;stroke-miterlimit:4;stroke-dasharray:none;stroke-dashoffset:0;stroke-opacity:1;visibility:visible;display:inline;overflow:visible" />
    <rect
       transform="matrix(1.18923,0,0,1.18923,90.252,3917.518)"
       y="-1847.6586"
       x="286.75638"
       height="1044.0038"
       width="1484.373"
       id="rect2307"
       style="color:black;fill:#dfeedb;fill-opacity:1;fill-rule:evenodd;stroke:black;stroke-width:2.87773895;stroke-linecap:butt;stroke-linejoin:miter;marker:none;marker-start:none;marker-mid:none;marker-end:none;stroke-miterlimit:4;stroke-dasharray:none;stroke-dashoffset:0;stroke-opacity:1;visibility:visible;display:inline;overflow:visible" />
    <rect
       transform="matrix(1.18923,0,0,1.18923,90.252,3917.518)"
       style="color:black;fill:#84c07c;fill-opacity:1;fill-rule:evenodd;stroke:black;stroke-width:2.50576568;stroke-linecap:butt;stroke-linejoin:miter;marker:none;marker-start:none;marker-mid:none;marker-end:none;stroke-miterlimit:4;stroke-dasharray:none;stroke-dashoffset:0;stroke-opacity:1;visibility:visible;display:inline;overflow:visible"
       id="rect2309"
       width="183.75191"
       height="269.41589"
       x="478.42044"
       y="-2902.5217" />
    <path
       transform="matrix(1.18923,0,0,1.18923,90.252,3917.518)"
       id="path2311"
       d="M 286.84512,-2895.4233 L 286.84512,-3186.0899"
       style="fill:none;fill-opacity:0.75;fill-rule:evenodd;stroke:black;stroke-width:2.97722387px;stroke-linecap:butt;stroke-linejoin:miter;stroke-opacity:1" />
    <path
       transform="matrix(1.18923,0,0,1.18923,90.252,3917.518)"
       style="fill:none;fill-opacity:0.75;fill-rule:evenodd;stroke:black;stroke-width:2.97722387px;stroke-linecap:butt;stroke-linejoin:miter;stroke-opacity:1"
       d="M 3264.6058,-2895.4233 L 3264.6058,-3186.0899"
       id="path2313" />
    <path
       transform="matrix(1.18923,0,0,1.18923,90.252,3917.518)"
       style="fill:none;fill-opacity:0.75;fill-rule:evenodd;stroke:black;stroke-width:2.97722387px;stroke-linecap:butt;stroke-linejoin:miter;stroke-opacity:1"
       d="M 321.73096,-2902.8408 L 32.502597,-2902.8408"
       id="path2315" />
    <path
       transform="matrix(1.18923,0,0,1.18923,90.252,3917.518)"
       id="path2317"
       d="M 284.44073,-2632.7375 L 189.43576,-2632.7375"
       style="fill:none;fill-opacity:0.75;fill-rule:evenodd;stroke:black;stroke-width:2.97722411px;stroke-linecap:butt;stroke-linejoin:miter;stroke-opacity:1" />
    <path
       transform="matrix(1.18923,0,0,1.18923,90.252,3917.518)"
       style="fill:none;fill-opacity:0.75;fill-rule:evenodd;stroke:black;stroke-width:2.97722411px;stroke-linecap:butt;stroke-linejoin:miter;stroke-opacity:1"
       d="M 284.44073,-2371.5375 L 189.43576,-2371.5375"
       id="path2319" />
    <path
       transform="matrix(1.18923,0,0,1.18923,90.252,3917.518)"
       style="fill:none;fill-opacity:0.75;fill-rule:evenodd;stroke:black;stroke-width:2.97722411px;stroke-linecap:butt;stroke-linejoin:miter;stroke-opacity:1"
       d="M 284.44077,-1847.6793 L 189.43576,-1847.6793"
       id="path2321" />
    <path
       transform="matrix(1.18923,0,0,1.18923,90.252,3917.518)"
       sodipodi:nodetypes="cc"
       id="path2323"
       d="M 285.64978,-803.83303 L 180.6086,-803.83303"
       style="fill:none;fill-opacity:0.75;fill-rule:evenodd;stroke:black;stroke-width:2.97722411px;stroke-linecap:butt;stroke-linejoin:miter;stroke-opacity:1" />
    <path
       transform="matrix(1.18923,0,0,1.18923,90.252,3917.518)"
       style="fill:none;fill-opacity:0.75;fill-rule:evenodd;stroke:black;stroke-width:2.97722411px;stroke-linecap:butt;stroke-linejoin:miter;stroke-opacity:1"
       d="M 285.53595,1306.6236 L 32.185306,1306.6236"
       id="path2325" />
    <path
       transform="matrix(1.18923,0,0,1.18923,90.252,3917.518)"
       style="fill:none;fill-opacity:0.75;fill-rule:evenodd;stroke:black;stroke-width:2.9772253px;stroke-linecap:butt;stroke-linejoin:miter;stroke-opacity:1"
       d="M 478.41697,-2895.4231 L 478.41697,-3017.5655"
       id="path2327" />
    <path
       transform="matrix(1.18923,0,0,1.18923,90.252,3917.518)"
       id="path2329"
       d="M 662.60921,-2895.4231 L 662.60921,-3017.5655"
       style="fill:none;fill-opacity:0.75;fill-rule:evenodd;stroke:black;stroke-width:2.9772253px;stroke-linecap:butt;stroke-linejoin:miter;stroke-opacity:1" />
    <path
       transform="matrix(1.18923,0,0,1.18923,90.252,3917.518)"
       id="path2331"
       d="M 1031.4377,-2895.4231 L 1031.4377,-3017.5655"
       style="fill:none;fill-opacity:0.75;fill-rule:evenodd;stroke:black;stroke-width:2.9772253px;stroke-linecap:butt;stroke-linejoin:miter;stroke-opacity:1" />
    <path
       transform="matrix(1.18923,0,0,1.18923,90.252,3917.518)"
       sodipodi:nodetypes="cc"
       id="path2333"
       d="M 1770.7537,-2904.1523 L 1770.7537,-3016.1592"
       style="fill:none;fill-opacity:0.75;fill-rule:evenodd;stroke:black;stroke-width:2.97722387px;stroke-linecap:butt;stroke-linejoin:miter;stroke-opacity:1" />
    <g
       id="g2335"
       transform="matrix(1.18923,0,0,1.18923,-36.16196,3791.11)">
      <path
         style="color:black;fill:black;fill-opacity:1;fill-rule:evenodd;stroke:none;stroke-width:1;stroke-linecap:butt;stroke-linejoin:miter;marker:none;marker-start:none;marker-mid:none;marker-end:none;stroke-miterlimit:4;stroke-dashoffset:0;stroke-opacity:1;visibility:visible;display:inline;overflow:visible"
         d="M 118.78125,93.21875 L 103.40625,97.84375 L 118.78125,102.5 L 118.78125,99.3125 L 455.15625,99.3125 L 455.15625,96.375 L 118.78125,96.375 L 118.78125,93.21875 z M 927.9375,93.21875 L 927.9375,96.375 L 591.5625,96.375 L 591.5625,99.3125 L 927.9375,99.3125 L 927.9375,102.5 L 943.3125,97.84375 L 927.9375,93.21875 z "
         id="path2337"
         transform="matrix(3.540602,0,0,3.540605,29.02656,-3391.734)" />
      <text
         xml:space="preserve"
         style="font-size:18.03459549px;font-style:normal;font-weight:normal;text-align:center;text-anchor:middle;fill:black;fill-opacity:1;stroke:none;stroke-width:1px;stroke-linecap:butt;stroke-linejoin:miter;stroke-opacity:1;font-family:Bitstream Vera Sans"
         x="485.84698"
         y="105.84901"
         id="text2339"
         transform="matrix(3.540602,0,0,3.540605,162.4042,-3396.779)"><tspan
           sodipodi:role="line"
           id="tspan2341"
           x="485.84698"
           y="105.84901">1000 mm</tspan></text>
    </g>
    <g
       id="g2343"
       transform="matrix(1.18923,0,0,1.18923,-36.16196,3791.11)">
      <path
         style="color:black;fill:black;fill-opacity:1;fill-rule:evenodd;stroke:none;stroke-width:1;stroke-linecap:butt;stroke-linejoin:miter;marker:none;marker-start:none;marker-mid:none;marker-end:none;stroke-miterlimit:4;stroke-dashoffset:0;stroke-opacity:1;visibility:visible;display:inline;overflow:visible"
         d="M 538,69.375 L 522.625,74 L 538,78.65625 L 538,75.46875 L 679.90625,75.46875 L 679.90625,72.53125 L 538,72.53125 L 538,69.375 z M 927.9375,69.375 L 927.9375,72.53125 L 786,72.53125 L 786,75.46875 L 927.9375,75.46875 L 927.9375,78.65625 L 943.3125,74 L 927.9375,69.375 z "
         id="path2345"
         transform="matrix(3.5421,0,0,3.542103,27.6124,-3137.527)" />
      <text
         id="text2347"
         y="80.134727"
         x="695.62537"
         style="font-size:18.03459549px;font-style:normal;font-weight:normal;text-align:center;text-anchor:middle;fill:black;fill-opacity:1;stroke:none;stroke-width:1px;stroke-linecap:butt;stroke-linejoin:miter;stroke-opacity:1;font-family:Bitstream Vera Sans"
         xml:space="preserve"
         transform="matrix(3.5421,0,0,3.542103,161.0561,-3135.948)"><tspan
           y="80.134727"
           x="695.62537"
           id="tspan2349"
           sodipodi:role="line">500 mm</tspan></text>
    </g>
    <g
       id="g2351"
       transform="matrix(1.18923,0,0,1.18923,-36.16196,3791.11)">
      <path
         style="color:black;fill:black;fill-opacity:1;fill-rule:evenodd;stroke:none;stroke-width:1;stroke-linecap:butt;stroke-linejoin:miter;marker:none;marker-start:none;marker-mid:none;marker-end:none;stroke-miterlimit:4;stroke-dashoffset:0;stroke-opacity:1;visibility:visible;display:inline;overflow:visible"
         d="M 329.15625,69.375 L 313.78125,74 L 329.15625,78.65625 L 329.15625,75.46875 L 364.65625,75.46875 L 364.65625,72.53125 L 329.15625,72.53125 L 329.15625,69.375 z M 506.21875,69.375 L 506.21875,72.53125 L 470.75,72.53125 L 470.75,75.46875 L 506.21875,75.46875 L 506.21875,78.65625 L 521.59375,74 L 506.21875,69.375 z "
         id="path2353"
         transform="matrix(3.538279,0,0,3.538282,29.75538,-3137.245)" />
      <text
         xml:space="preserve"
         style="font-size:18.03459549px;font-style:normal;font-weight:normal;text-align:center;text-anchor:middle;fill:black;fill-opacity:1;stroke:none;stroke-width:1px;stroke-linecap:butt;stroke-linejoin:miter;stroke-opacity:1;font-family:Bitstream Vera Sans"
         x="380.14075"
         y="80.581291"
         id="text2355"
         transform="matrix(3.538279,0,0,3.538282,162.9957,-3137.248)"><tspan
           sodipodi:role="line"
           id="tspan2357"
           x="380.14075"
           y="80.581291">250 mm</tspan></text>
    </g>
    <g
       id="g2359"
       transform="matrix(1.18923,0,0,1.18923,-36.16196,3791.11)">
      <path
         style="color:black;fill:black;fill-opacity:1;fill-rule:evenodd;stroke:none;stroke-width:1;stroke-linecap:butt;stroke-linejoin:miter;marker:none;marker-start:none;marker-mid:none;marker-end:none;stroke-miterlimit:4;stroke-dashoffset:0;stroke-opacity:1;visibility:visible;display:inline;overflow:visible"
         d="M 224.99531,69.375824 L 209.62031,74.000824 L 224.99531,78.657074 L 224.99531,75.469574 L 297.24587,75.469574 L 297.24587,78.657074 L 312.62087,74.000824 L 297.24587,69.375824 L 297.24587,72.532074 L 224.99531,72.532074 L 224.99531,69.375824 z "
         id="path2361"
         sodipodi:nodetypes="ccccccccccc"
         transform="matrix(3.540602,0,0,3.540605,29.02656,-3137.417)" />
      <text
         id="text2363"
         y="57.870762"
         x="223.22856"
         style="font-size:18.03459549px;font-style:normal;font-weight:normal;text-align:center;text-anchor:middle;fill:black;fill-opacity:1;stroke:none;stroke-width:1px;stroke-linecap:butt;stroke-linejoin:miter;stroke-opacity:1;font-family:Bitstream Vera Sans"
         xml:space="preserve"
         transform="matrix(3.540602,0,0,3.540605,162.4077,-3137.417)"><tspan
           y="57.870762"
           x="223.22856"
           id="tspan2365"
           sodipodi:role="line">125 mm</tspan></text>
    </g>
    <g
       id="g2367"
       transform="matrix(1.18923,0,0,1.18923,-36.16196,3791.11)">
      <path
         sodipodi:nodetypes="ccccccccccc"
         id="path2369"
         d="M 172.99531,69.375824 L 157.62031,74.000824 L 172.99531,78.657074 L 172.99531,75.469574 L 193.98063,75.469574 L 193.98063,78.657074 L 209.35563,74.000824 L 193.98063,69.375824 L 193.98063,72.532074 L 172.99531,72.532074 L 172.99531,69.375824 z "
         style="color:black;fill:black;fill-opacity:1;fill-rule:evenodd;stroke:none;stroke-width:1;stroke-linecap:butt;stroke-linejoin:miter;marker:none;marker-start:none;marker-mid:none;marker-end:none;stroke-miterlimit:4;stroke-dashoffset:0;stroke-opacity:1;visibility:visible;display:inline;overflow:visible"
         transform="matrix(3.540602,0,0,3.540605,29.02656,-3137.417)" />
      <text
         xml:space="preserve"
         style="font-size:18.03459549px;font-style:normal;font-weight:normal;text-align:center;text-anchor:middle;fill:black;fill-opacity:1;stroke:none;stroke-width:1px;stroke-linecap:butt;stroke-linejoin:miter;stroke-opacity:1;font-family:Bitstream Vera Sans"
         x="151.63243"
         y="57.870762"
         id="text2371"
         transform="matrix(3.540602,0,0,3.540605,142.0794,-3137.417)"><tspan
           sodipodi:role="line"
           id="tspan2373"
           x="151.63243"
           y="57.870762">62 mm</tspan></text>
    </g>
    <g
       id="g2375"
       transform="matrix(1.18923,0,0,1.18923,-36.16196,3791.11)">
      <path
         style="color:black;fill:black;fill-opacity:1;fill-rule:evenodd;stroke:none;stroke-width:1;stroke-linecap:butt;stroke-linejoin:miter;marker:none;marker-start:none;marker-mid:none;marker-end:none;stroke-miterlimit:4;stroke-dashoffset:0;stroke-opacity:1;visibility:visible;display:inline;overflow:visible"
         d="M 86.21875,120.5 L 81.5625,135.875 L 84.75,135.875 L 84.75,646.375 L 87.6875,646.375 L 87.6875,135.875 L 90.84375,135.875 L 86.21875,120.5 z M 84.75,782.78125 L 84.75,1293.2813 L 81.5625,1293.2813 L 86.21875,1308.6563 L 90.84375,1293.2813 L 87.6875,1293.2813 L 87.6875,782.78125 L 84.75,782.78125 z "
         id="path2377"
         transform="matrix(3.540602,0,0,3.540605,-126.7599,-3221.785)" />
      <text
         id="text2379"
         y="92.782318"
         x="-758.21881"
         style="font-size:18.03459549px;font-style:normal;font-weight:normal;text-align:center;text-anchor:middle;fill:black;fill-opacity:1;stroke:none;stroke-width:1px;stroke-linecap:butt;stroke-linejoin:miter;stroke-opacity:1;font-family:Bitstream Vera Sans"
         xml:space="preserve"
         transform="matrix(0,-3.540605,3.540602,0,-126.8107,-3375.52)"><tspan
           y="92.782318"
           x="-758.21881"
           id="tspan2381"
           sodipodi:role="line">1414 mm</tspan></text>
    </g>
    <g
       id="g2383"
       transform="matrix(1.18923,0,0,1.18923,-36.16196,3791.11)">
      <path
         style="color:black;fill:black;fill-opacity:1;fill-rule:evenodd;stroke:none;stroke-width:1;stroke-linecap:butt;stroke-linejoin:miter;marker:none;marker-start:none;marker-mid:none;marker-end:none;stroke-miterlimit:4;stroke-dashoffset:0;stroke-opacity:1;visibility:visible;display:inline;overflow:visible"
         d="M 56.21875,712.875 L 51.5625,728.25 L 54.75,728.25 L 54.75,953.21875 L 57.6875,953.21875 L 57.6875,728.25 L 60.84375,728.25 L 56.21875,712.875 z M 54.75,1068.1875 L 54.75,1293.1563 L 51.5625,1293.1563 L 56.21875,1308.5313 L 60.84375,1293.1563 L 57.6875,1293.1563 L 57.6875,1068.1875 L 54.75,1068.1875 z "
         id="path2385"
         transform="matrix(3.540602,0,0,3.540605,135.2446,-3221.785)" />
      <text
         transform="matrix(0,-3.540605,3.540602,0,135.1938,-3355.128)"
         xml:space="preserve"
         style="font-size:18.03459549px;font-style:normal;font-weight:normal;text-align:center;text-anchor:middle;fill:black;fill-opacity:1;stroke:none;stroke-width:1px;stroke-linecap:butt;stroke-linejoin:miter;stroke-opacity:1;font-family:Bitstream Vera Sans"
         x="-1048.2894"
         y="62.782314"
         id="text2387"><tspan
           sodipodi:role="line"
           id="tspan2389"
           x="-1048.2894"
           y="62.782314">707 mm</tspan></text>
    </g>
    <g
       id="g2391"
       transform="matrix(1.18923,0,0,1.18923,-36.16196,3791.11)">
      <path
         style="color:black;fill:black;fill-opacity:1;fill-rule:evenodd;stroke:none;stroke-width:1;stroke-linecap:butt;stroke-linejoin:miter;marker:none;marker-start:none;marker-mid:none;marker-end:none;stroke-miterlimit:4;stroke-dashoffset:0;stroke-opacity:1;visibility:visible;display:inline;overflow:visible"
         d="M 56.21875,418.375 L 51.5625,433.75 L 54.75,433.75 L 54.75,512.46875 L 57.6875,512.46875 L 57.6875,433.75 L 60.84375,433.75 L 56.21875,418.375 z M 54.75,618.84375 L 54.75,697.5625 L 51.5625,697.5625 L 56.21875,712.9375 L 60.84375,697.5625 L 57.6875,697.5625 L 57.6875,618.84375 L 54.75,618.84375 z "
         id="path2393"
         transform="matrix(3.540602,0,0,3.540605,135.2446,-3221.785)" />
      <text
         id="text2395"
         y="62.782314"
         x="-603.21851"
         style="font-size:18.03459549px;font-style:normal;font-weight:normal;text-align:center;text-anchor:middle;fill:black;fill-opacity:1;stroke:none;stroke-width:1px;stroke-linecap:butt;stroke-linejoin:miter;stroke-opacity:1;font-family:Bitstream Vera Sans"
         xml:space="preserve"
         transform="matrix(0,-3.540605,3.540602,0,135.1938,-3355.168)"><tspan
           y="62.782314"
           x="-603.21851"
           id="tspan2397"
           sodipodi:role="line">353 mm</tspan></text>
    </g>
    <g
       id="g2399"
       transform="matrix(1.18923,0,0,1.18923,-36.16196,3791.11)">
      <path
         style="color:black;fill:black;fill-opacity:1;fill-rule:evenodd;stroke:none;stroke-width:1;stroke-linecap:butt;stroke-linejoin:miter;marker:none;marker-start:none;marker-mid:none;marker-end:none;stroke-miterlimit:4;stroke-dashoffset:0;stroke-opacity:1;visibility:visible;display:inline;overflow:visible"
         d="M 56.21875,270.875 L 51.5625,286.25 L 54.75,286.25 L 54.75,295.125 L 57.6875,295.125 L 57.6875,286.25 L 60.84375,286.25 L 56.21875,270.875 z M 54.75,393.6875 L 54.75,402.5625 L 51.5625,402.5625 L 56.21875,417.9375 L 60.84375,402.5625 L 57.6875,402.5625 L 57.6875,393.6875 L 54.75,393.6875 z "
         id="path2401"
         transform="matrix(3.540602,0,0,3.540605,135.2446,-3221.785)" />
      <text
         transform="matrix(0,-3.540605,3.540602,0,135.1938,-3355.168)"
         xml:space="preserve"
         style="font-size:18.03459549px;font-style:normal;font-weight:normal;text-align:center;text-anchor:middle;fill:black;fill-opacity:1;stroke:none;stroke-width:1px;stroke-linecap:butt;stroke-linejoin:miter;stroke-opacity:1;font-family:Bitstream Vera Sans"
         x="-382.29871"
         y="62.782314"
         id="text2403"><tspan
           sodipodi:role="line"
           id="tspan2405"
           x="-382.29871"
           y="62.782314">176 mm</tspan></text>
    </g>
    <g
       id="g2407"
       transform="matrix(1.18923,0,0,1.18923,-36.16196,3791.11)">
      <path
         style="color:black;fill:black;fill-opacity:1;fill-rule:evenodd;stroke:none;stroke-width:1;stroke-linecap:butt;stroke-linejoin:miter;marker:none;marker-start:none;marker-mid:none;marker-end:none;stroke-miterlimit:4;stroke-dashoffset:0;stroke-opacity:1;visibility:visible;display:inline;overflow:visible"
         d="M 60.858103,212.31552 L 56.233103,196.94052 L 51.576853,212.31552 L 54.764353,212.31552 L 54.764353,254.71218 L 51.576853,254.71218 L 56.233103,270.08718 L 60.858103,254.71218 L 57.701853,254.71218 L 57.701853,212.31552 L 60.858103,212.31552 z "
         id="path2409"
         sodipodi:nodetypes="ccccccccccc"
         transform="matrix(3.540602,0,0,3.540605,135.2446,-3221.785)" />
      <text
         id="text2411"
         y="42.518345"
         x="-265.41342"
         style="font-size:18.03459549px;font-style:normal;font-weight:normal;text-align:center;text-anchor:middle;fill:black;fill-opacity:1;stroke:none;stroke-width:1px;stroke-linecap:butt;stroke-linejoin:miter;stroke-opacity:1;font-family:Bitstream Vera Sans"
         xml:space="preserve"
         transform="matrix(0,-3.540605,3.540602,0,135.2446,-3334.838)"><tspan
           y="42.518345"
           x="-265.41342"
           id="tspan2413"
           sodipodi:role="line">88 mm</tspan></text>
    </g>
    <text
       transform="matrix(1.18923,0,0,1.18923,169.3765,3917.517)"
       id="text2415"
       y="-2728.4307"
       x="502.17737"
       style="font-size:108.18791962px;font-style:normal;font-weight:normal;text-align:center;text-anchor:middle;fill:black;fill-opacity:1;stroke:none;stroke-width:1px;stroke-linecap:butt;stroke-linejoin:miter;stroke-opacity:1;font-family:Bitstream Vera Sans"
       xml:space="preserve"><tspan
         y="-2728.4307"
         x="502.17737"
         id="tspan2417"
         sodipodi:role="line">B8</tspan></text>
    <text
       transform="matrix(1.18923,0,0,1.18923,217.3284,3917.517)"
       xml:space="preserve"
       style="font-size:173.75306702px;font-style:normal;font-weight:normal;text-align:center;text-anchor:middle;fill:black;fill-opacity:1;stroke:none;stroke-width:1px;stroke-linecap:butt;stroke-linejoin:miter;stroke-opacity:1;font-family:Bitstream Vera Sans"
       x="737.59808"
       y="-2573.9863"
       id="text2419"><tspan
         sodipodi:role="line"
         id="tspan2421"
         x="737.59809"
         y="-2573.9863">B6</tspan></text>
    <text
       transform="matrix(1.18923,0,0,1.18923,192.285,3917.517)"
       id="text2423"
       y="-2450.7112"
       x="389.16428"
       style="font-size:139.51071167px;font-style:normal;font-weight:normal;text-align:center;text-anchor:middle;fill:black;fill-opacity:1;stroke:none;stroke-width:1px;stroke-linecap:butt;stroke-linejoin:miter;stroke-opacity:1;font-family:Bitstream Vera Sans"
       xml:space="preserve"><tspan
         y="-2450.7112"
         x="389.16427"
         id="tspan2425"
         sodipodi:role="line">B7</tspan></text>
    <text
       transform="matrix(1.18923,0,0,1.18923,262.3141,3917.517)"
       id="text2427"
       y="-2024.8755"
       x="512.83636"
       style="font-size:235.26193237px;font-style:normal;font-weight:normal;text-align:center;text-anchor:middle;fill:black;fill-opacity:1;stroke:none;stroke-width:1px;stroke-linecap:butt;stroke-linejoin:miter;stroke-opacity:1;font-family:Bitstream Vera Sans"
       xml:space="preserve"><tspan
         y="-2024.8755"
         x="512.83636"
         id="tspan2429"
         sodipodi:role="line">B5</tspan></text>
    <text
       transform="matrix(1.18923,0,0,1.18923,304.6746,3917.517)"
       xml:space="preserve"
       style="font-size:302.43490601px;font-style:normal;font-weight:normal;text-align:center;text-anchor:middle;fill:black;fill-opacity:1;stroke:none;stroke-width:1px;stroke-linecap:butt;stroke-linejoin:miter;stroke-opacity:1;font-family:Bitstream Vera Sans"
       x="1214.4381"
       y="-2265.4568"
       id="text2431"><tspan
         sodipodi:role="line"
         id="tspan2433"
         x="1214.4381"
         y="-2265.4568">B4</tspan></text>
    <text
       transform="matrix(1.18923,0,0,1.18923,366.2381,3917.518)"
       id="text2435"
       y="-1188.2924"
       x="793.55499"
       style="font-size:377.35839844px;font-style:normal;font-weight:normal;text-align:center;text-anchor:middle;fill:black;fill-opacity:1;stroke:none;stroke-width:1px;stroke-linecap:butt;stroke-linejoin:miter;stroke-opacity:1;font-family:Bitstream Vera Sans"
       xml:space="preserve"><tspan
         y="-1188.2924"
         x="793.55498"
         id="tspan2437"
         sodipodi:role="line">B3</tspan></text>
    <text
       transform="matrix(1.18923,0,0,1.18923,446.9561,3917.517)"
       xml:space="preserve"
       style="font-size:487.72592163px;font-style:normal;font-weight:normal;text-align:center;text-anchor:middle;fill:black;fill-opacity:1;stroke:none;stroke-width:1px;stroke-linecap:butt;stroke-linejoin:miter;stroke-opacity:1;font-family:Bitstream Vera Sans"
       x="2218.4519"
       y="-1672.4055"
       id="text2439"><tspan
         sodipodi:role="line"
         id="tspan2441"
         x="2218.4519"
         y="-1672.4055">B2</tspan></text>
    <text
       transform="matrix(1.18923,0,0,1.18923,550.3001,3918.154)"
       id="text2443"
       y="480.03986"
       x="1386.4808"
       style="font-size:630.05584717px;font-style:normal;font-weight:normal;text-align:center;text-anchor:middle;fill:black;fill-opacity:1;stroke:none;stroke-width:1px;stroke-linecap:butt;stroke-linejoin:miter;stroke-opacity:1;font-family:Bitstream Vera Sans"
       xml:space="preserve"><tspan
         y="480.03986"
         x="1386.4808"
         id="tspan2445"
         sodipodi:role="line">B1</tspan></text>
    <text
       transform="matrix(1.18923,0,0,1.18923,854.355,3990.977)"
       xml:space="preserve"
       style="font-size:1029.34350586px;font-style:normal;font-weight:normal;text-align:center;text-anchor:middle;fill:white;fill-opacity:0.82033895;stroke:black;stroke-width:2.97722387px;stroke-linecap:butt;stroke-linejoin:miter;stroke-opacity:1;font-family:Bitstream Vera Sans"
       x="1116.4156"
       y="-485.37061"
       id="text2447"><tspan
         style="text-align:center;text-anchor:middle;stroke-width:2.97722387"
         sodipodi:role="line"
         id="tspan2449"
         x="1116.4156"
         y="-485.37061">B0</tspan></text>
    <rect
       transform="matrix(1.18923,0,0,1.18923,90.252,3917.518)"
       y="-2901.4041"
       x="288.56915"
       height="266.88687"
       width="188.17767"
       id="rect2451"
       style="color:black;fill:#818181;fill-opacity:1;fill-rule:evenodd;stroke:none;stroke-width:0.84164512;stroke-linecap:butt;stroke-linejoin:miter;marker:none;marker-start:none;marker-mid:none;marker-end:none;stroke-miterlimit:4;stroke-dasharray:none;stroke-dashoffset:0;stroke-opacity:1;visibility:visible;display:inline;overflow:visible" />
  </g>
</svg>
